# xmcd CD database file
#
# Track frame offsets:
#	182
#	15285
#	25097
#	44687
#	53440
#	63502
#	72945
#	84190
#	93722
#	106760
#
# Disc length: 1556 seconds
#
# Revision: 7
# Processed by: cddbd v1.5.2PL0 Copyright (c) Steve Scherf et al.
# Submitted via: CDex 1.72
#
DISCID=7206120a
DTITLE=Lee, Peggy (USA-90-Fever and Other Hits-pop) - Fever and Other Hits
DYEAR=1990
DGENRE=Pop
TTITLE0=Fever
TTITLE1=I'm A Woman
TTITLE2=Is That All There Is
TTITLE3=(You Gotta Have) Heart
TTITLE4=My Man
TTITLE5=A Doodlin' Song
TTITLE6=Hallelujah, I Love Him So
TTITLE7=Big Spender
TTITLE8=Alright, Okay, You Win
TTITLE9=The Alley Cat Song
EXTD=YEAR: 1990
EXTT0=
EXTT1=
EXTT2=
EXTT3=
EXTT4=
EXTT5=
EXTT6=
EXTT7=
EXTT8=
EXTT9=
PLAYORDER=
